<?xml version="1.0" encoding="UTF-8" standalone="no"?>
<!-- Created with Inkscape (http://www.inkscape.org/) -->

<svg
   width="1500"
   height="500"
   viewBox="0 0 396.87499 132.29167"
   version="1.1"
   id="svg5"
   xml:space="preserve"
   sodipodi:docname="header-github-original.svg"
   inkscape:version="1.2.2 (b0a8486541, 2022-12-01)"
   xmlns:inkscape="http://www.inkscape.org/namespaces/inkscape"
   xmlns:sodipodi="http://sodipodi.sourceforge.net/DTD/sodipodi-0.dtd"
   xmlns="http://www.w3.org/2000/svg"
   xmlns:svg="http://www.w3.org/2000/svg"><sodipodi:namedview
     id="namedview7"
     pagecolor="#ffffff"
     bordercolor="#000000"
     borderopacity="0.25"
     inkscape:showpageshadow="2"
     inkscape:pageopacity="0.0"
     inkscape:pagecheckerboard="0"
     inkscape:deskcolor="#d1d1d1"
     inkscape:document-units="mm"
     showgrid="false"
     inkscape:zoom="0.71624579"
     inkscape:cx="788.83535"
     inkscape:cy="166.84217"
     inkscape:window-width="1920"
     inkscape:window-height="1010"
     inkscape:window-x="0"
     inkscape:window-y="37"
     inkscape:window-maximized="1"
     inkscape:current-layer="layer1"><inkscape:grid
       type="xygrid"
       id="grid1412" /></sodipodi:namedview><defs
     id="defs2" /><g
     inkscape:label="Ebene 1"
     inkscape:groupmode="layer"
     id="layer1"
     style="fill:#2c3e50;fill-opacity:1"><rect
       style="fill:#2c3e50;fill-opacity:1;stroke-width:0.264583"
       id="rect2451"
       width="396.875"
       height="132.29167"
       x="0"
       y="0" /><path
       style="display:inline;fill:#34495e;fill-opacity:1;stroke-width:0.698084"
       d="m 595.11694,499.5235 c 0,-0.29522 3.86446,-6.03868 8.6161,-12.80546 1.27241,-1.81204 4.36376,-6.27892 6.86966,-9.92641 2.5059,-3.64749 6.51136,-9.45904 8.90103,-12.91456 2.38966,-3.45552 6.12635,-8.89773 8.30374,-12.09379 2.17739,-3.19607 6.07933,-8.7921 8.67096,-12.43562 2.59164,-3.64352 4.71207,-6.78042 4.71207,-6.97089 0,-0.28538 3.22288,-4.80442 5.41474,-7.59242 0.63405,-0.80651 7.15895,-10.46958 8.19791,-12.14075 0.38395,-0.61757 0.85515,-1.27993 1.04713,-1.4719 0.19197,-0.19197 1.00271,-1.29146 1.80164,-2.44329 0.79894,-1.15184 2.61055,-3.74782 4.02581,-5.76886 1.41526,-2.02102 4.97229,-7.2043 7.90452,-11.51839 2.93223,-4.31408 7.87458,-11.45553 10.98301,-15.86987 6.20659,-8.81413 9.54102,-13.63006 19.57637,-28.27431 3.68353,-5.37525 8.98762,-13.07163 11.78687,-17.10307 2.79925,-4.03143 7.24676,-10.47126 9.88335,-14.31073 7.30923,-10.64385 7.6591,-11.14389 8.05951,-11.51839 0.20524,-0.19197 1.52023,-2.0768 2.92217,-4.18851 1.40195,-2.1117 4.30883,-6.35256 6.45974,-9.42414 2.15091,-3.07157 5.95221,-8.56898 8.44735,-12.21647 2.49513,-3.64749 6.71481,-9.77318 9.37705,-13.61265 2.66225,-3.83946 5.24235,-7.56694 5.73355,-8.28328 0.4912,-0.71634 1.39913,-1.9729 2.01762,-2.79234 0.61849,-0.81944 3.15326,-4.47421 5.63285,-8.1217 2.47959,-3.64749 5.90027,-8.61073 7.60154,-11.02942 1.70125,-2.4187 3.5644,-5.15105 4.14032,-6.0719 1.33354,-2.13224 5.11918,-7.57082 5.58925,-8.02972 0.34672,-0.33848 3.45096,-4.84589 5.5801,-8.10241 0.57592,-0.88086 2.32612,-3.42343 3.88933,-5.65015 1.56322,-2.22673 4.68218,-6.71876 6.93103,-9.9823 2.24885,-3.26355 6.1853,-8.91803 8.74768,-12.56552 2.56237,-3.64749 7.05593,-10.16151 9.9857,-14.4756 2.92977,-4.31409 6.49368,-9.49737 7.91982,-11.51839 1.42614,-2.02103 4.61322,-6.64773 7.08242,-10.28154 5.4989,-8.09254 7.34487,-10.74012 7.80495,-11.19421 0.19451,-0.19197 2.80366,-3.96163 5.79812,-8.37701 2.99446,-4.41539 6.78095,-9.9128 8.41442,-12.21648 1.63347,-2.30368 5.24115,-7.48696 8.01707,-11.51839 2.77592,-4.03144 7.56581,-10.942475 10.64421,-15.357859 5.21869,-7.485252 12.17409,-17.612348 14.59132,-21.245049 2.72929,-4.101689 5.25647,-7.75856 5.5801,-8.074495 0.19665,-0.191973 1.29818,-1.762663 2.44787,-3.490422 1.14968,-1.727759 2.24828,-3.298449 2.44133,-3.490422 0.19305,-0.191973 1.81847,-2.548008 3.61204,-5.235633 1.79357,-2.687625 4.59703,-6.771418 6.22991,-9.075097 1.63288,-2.303678 4.70291,-6.70161 6.82228,-9.773181 2.11938,-3.071571 7.06609,-10.19264 10.99271,-15.824596 3.92661,-5.6319575 7.48922,-10.8937686 7.91692,-11.6929141 L 940.01974,0 h 279.90726 279.9073 v 249.91421 249.91421 h -452.3587 c -248.79726,0 -452.35866,-0.13722 -452.35866,-0.30492 z"
       id="path2737"
       transform="scale(0.26458333)" /><path
       style="display:inline;fill:#ffffff;fill-opacity:1;stroke-width:0.158233"
       d="m 65.399157,80.404965 c 0,-0.342046 2.87368,-3.608606 3.91486,-4.659152 3.28103,-3.310566 7.9076,-5.359873 12.66256,-5.608795 3.69488,-0.193429 6.6604,0.916347 9.251182,3.462037 1.11797,1.098508 0.53661,2.579329 0.25641,3.091263 -0.28396,0.518761 0.091,-0.503747 -1.06016,-1.08086 -2.346982,-1.176624 -5.511872,-1.921204 -8.171592,-1.922473 -4.31687,-0.0023 -8.84312,1.865272 -13.08794,4.644133 -1.56491,1.024469 -3.76532,2.238091 -3.76532,2.073847 z"
       id="path2276"
       sodipodi:nodetypes="sssssssss" /><path
       style="display:inline;fill:#ffffff;fill-opacity:1;stroke-width:0.158233"
       d="m 83.934477,78.977868 c -1.7012,-0.680814 -1.08627,-3.288531 0.78772,-3.340474 1.07906,-0.0299 1.85264,0.740974 1.85264,1.846175 0,0.837567 -0.84421,1.646142 -1.70423,1.632296 -0.33885,-0.0055 -0.7601,-0.06755 -0.93613,-0.137997 z m 2.24031,-1.573201 c 0,-0.305699 -0.0916,-0.40156 -0.41962,-0.438746 -0.48428,-0.05492 -0.73612,0.348724 -0.43726,0.700826 0.30693,0.361608 0.85688,0.193407 0.85688,-0.26208 z"
       id="path2274" /><path
       style="display:inline;fill:#ffffff;fill-opacity:1;stroke-width:0.137215"
       d="m 65.572807,87.857425 c 0,-1.08714 0.36315,-3.18539 0.71022,-4.10362 1.44644,-3.826689 5.06211,-6.770694 10.1496,-8.264167 1.86948,-0.548798 3.03852,-0.73789 5.02353,-0.812553 l 1.86864,-0.07029 -0.89979,0.398978 c -1.1573,0.513163 -2.23079,1.495687 -2.77093,2.536123 -0.23411,0.450967 -0.42572,0.88623 -0.42578,0.967252 -7e-5,0.08102 -0.59202,0.335664 -1.31547,0.565873 -2.67389,0.850853 -5.11127,2.089464 -7.23723,3.677724 -1.76037,1.31515 -3.30472,3.02769 -4.36394,4.83925 -0.33838,0.57871 -0.64305,1.0522 -0.67705,1.0522 -0.034,0 -0.0618,-0.35405 -0.0618,-0.78678 z"
       id="path2270" /><path
       style="display:inline;fill:#ffffff;fill-opacity:1;stroke-width:0.11722"
       d="m 66.837647,93.672215 c -0.22026,-0.87563 -0.33507,-2.64025 -0.22454,-3.45113 0.46058,-3.37935 2.95337,-6.49345 6.99756,-8.74163 1.4861,-0.826127 2.44662,-1.218621 4.12749,-1.686605 l 1.58232,-0.440538 -0.68794,0.50622 c -0.88483,0.651101 -1.60298,1.663023 -1.85368,2.612013 -0.10863,0.41133 -0.1842,0.80127 -0.16784,0.86654 0.0164,0.0653 -0.43783,0.39199 -1.0093,0.72606 -2.11218,1.23468 -3.94376,2.73309 -5.4384,4.44915 -1.23763,1.42096 -2.21018,3.11761 -2.74817,4.79434 -0.17186,0.53563 -0.33625,0.9796 -0.3653,0.98658 -0.0291,0.007 -0.12454,-0.27246 -0.2122,-0.621 z"
       id="path2270-6" /><path
       style="display:inline;fill:#ffffff;fill-opacity:1;stroke-width:0.104042"
       d="m 69.459787,99.104101 c -0.36504,-0.738297 -0.82345,-2.287218 -0.89652,-3.029266 -0.30453,-3.09253 1.15765,-6.3261 4.10453,-9.07698 1.08286,-1.01085 1.81176,-1.53832 3.13215,-2.26663 l 1.24298,-0.6856 -0.47591,0.5781 c -0.61212,0.74355 -1.00983,1.77725 -1.02658,2.6682 -0.007,0.38618 0.009,0.74718 0.0362,0.80223 0.0272,0.0551 -0.28856,0.43004 -0.70163,0.83333 -1.52668,1.49057 -2.76287,3.16376 -3.67054,4.96808 -0.75159,1.49406 -1.22332,3.184245 -1.33299,4.776076 -0.035,0.50852 -0.0825,0.934072 -0.10565,0.945672 -0.023,0.0116 -0.16079,-0.219342 -0.30609,-0.513212 z"
       id="path2270-6-7" /><path
       style="display:inline;fill:#ffffff;fill-opacity:1;stroke-width:0.0744139"
       d="m 74.039357,100.75133 c -0.38205,-0.47371 -0.97962,-1.518589 -1.1687,-2.043499 -0.78796,-2.187538 -0.43067,-4.770506 1.00298,-7.250666 0.52681,-0.91137 0.91039,-1.41414 1.6483,-2.16046 l 0.69466,-0.70256 -0.20618,0.4974 c -0.26517,0.63975 -0.33314,1.45389 -0.17545,2.10148 0.0684,0.28068 0.14757,0.53924 0.17601,0.57457 0.0285,0.0354 -0.10993,0.35916 -0.30754,0.7196 -0.73033,1.33224 -1.23335,2.74841 -1.4936,4.204938 -0.2155,1.206064 -0.20819,2.507608 0.0206,3.677867 0.0731,0.37383 0.12222,0.6897 0.1091,0.70193 -0.013,0.0122 -0.14821,-0.13205 -0.30029,-0.32061 z"
       id="path2270-6-7-5" /><text
       xml:space="preserve"
       style="font-style:normal;font-variant:normal;font-weight:normal;font-stretch:normal;font-size:38.8056px;font-family:'Liberation Sans';-inkscape-font-specification:'Liberation Sans, Normal';font-variant-ligatures:normal;font-variant-caps:normal;font-variant-numeric:normal;font-variant-east-asian:normal;fill:#ffffff;fill-opacity:1;stroke-width:0.264583"
       x="152.83649"
       y="76.613754"
       id="text4139"><tspan
         sodipodi:role="line"
         id="tspan4137"
         style="font-style:normal;font-variant:normal;font-weight:normal;font-stretch:normal;font-size:38.80559727px;font-family:'Liberation Sans';-inkscape-font-specification:'Liberation Sans, Normal';font-variant-ligatures:normal;font-variant-caps:normal;font-variant-numeric:normal;font-variant-east-asian:normal;fill:#ffffff;stroke-width:0.264583"
         x="152.83649"
         y="76.613754">#!/kea/parrot</tspan></text><path
       id="path1900"
       style="display:inline;fill:#ffffff;fill-opacity:1;stroke-width:0.308832"
       d="m 81.160927,12.055981 -2.69389,2.41484 c -10.73851,9.627297 -23.95961,17.102084 -35.35753,19.989476 -1.724,0.436737 -3.21785,0.888101 -3.31918,1.003041 -0.39086,0.443463 -0.11954,14.123296 0.37259,18.788517 1.30072,12.330501 4.04665,23.199399 8.19485,32.560286 1.23031,-0.114874 3.18741,-0.112292 4.23488,0.867648 l -0.3731,-4.624009 c -4.54815,-10.842122 -7.20197,-23.752593 -7.70237,-37.840583 l -0.18707,-5.275646 1.64847,-0.528651 c 0.90677,-0.290497 2.40163,-0.769154 3.32177,-1.064017 8.0213,-2.570498 19.36761,-9.059902 28.10681,-16.074988 l 3.78788,-3.040124 2.60139,2.140437 c 10.326822,8.497725 22.420733,15.177644 32.884283,18.163234 l 1.23972,0.353983 v 2.701126 c 0,7.089526 -1.2768,18.10971 -2.92282,25.23205 -1.25169,5.416 -3.16876,11.195119 -5.29684,16.18661 l -0.2992,3.706749 c 1.12187,-1.104439 3.37355,-1.014174 4.57284,-0.873847 4.23961,-9.605978 7.0518,-20.799872 8.31474,-33.243964 0.42808,-4.217956 0.69729,-17.387964 0.36639,-17.917252 -0.14525,-0.232339 -1.74453,-0.795383 -3.55431,-1.251604 C 107.71464,31.558905 94.362619,23.929957 83.279667,13.961808 Z m 32.621253,75.207812 c -1.6669,0.51589 -2.95109,1.154983 -4.64623,3.750675 l -0.47026,5.829617 c 1.88034,-2.984375 3.59197,-6.177031 5.11649,-9.580292 z m -65.181533,0.104902 c 1.39972,3.097072 2.96425,6.016484 4.67465,8.775692 l -0.41807,-5.186762 c -1.55652,-2.359576 -2.76525,-3.090797 -4.25658,-3.58893 z m 10.01954,16.259985 c 5.07744,6.15134 11.13806,11.2016 18.16427,15.11536 2.17104,1.20932 4.13256,2.20218 4.3589,2.2071 0.22634,0.005 2.17965,-0.97173 4.34031,-2.16989 4.235522,-2.34875 8.949472,-5.72523 12.362548,-8.85476 1.598971,-1.46614 3.783845,-3.87534 5.806345,-6.29781 h -6.976809 c -3.905432,3.98154 -8.298634,7.3786 -13.176974,10.13944 -0.95099,0.53819 -1.96262,0.97671 -2.24793,0.97565 -1.36914,-0.008 -7.74906,-4.0898 -11.98325,-7.66568 -1.06595,-0.90023 -2.3028,-2.11034 -3.57549,-3.44941 z" /><path
       style="display:inline;fill:#ffffff;fill-opacity:1;stroke-width:0.100011"
       d="m 84.132397,92.497185 c 0.72723,-1.70157 0.99424,-3.77881 0.63521,-4.94152 -0.11278,-0.36517 -0.10637,-0.38096 0.15715,-0.38869 0.44624,-0.0131 1.74244,0.46771 2.4221,0.89843 0.84689,0.53671 1.78276,1.35986 2.545072,2.23854 0.34542,0.39817 0.6364,0.75066 0.64658,0.78333 0.01,0.0327 -1.489342,0.50912 -3.332302,1.05878 l -3.35086,0.99938 z"
       id="path2145"
       sodipodi:nodetypes="ssssssscs" /><path
       style="display:inline;fill:#ffffff;fill-opacity:1;stroke-width:0.264583"
       d="m 40.649947,103.62847 h 80.697903 c -0.0785,1.53084 -1.47155,2.84094 -3.96875,3.96875 H 44.618697 c -2.57639,-1.136 -3.8454,-2.46337 -3.96875,-3.96875 z"
       id="path507"
       sodipodi:nodetypes="ccccc" /><path
       id="path848"
       style="fill:#ffffff;fill-opacity:1;stroke-width:0.264583"
       d="m 68.580817,53.959882 c -7.91452,2.00016 -17.36505,6.004885 -19.99361,13.950053 -2.92845,8.851659 -8.21289,18.901793 -7.9375,27.78125 0.17506,5.644465 13.22917,7.937495 13.22917,7.937495 l -1.02268,-12.681908 c -1.99553,-3.027588 -3.39228,-3.34722 -5.5919,-3.986837 0,0 0.95743,-0.198427 2.10943,-0.201539 1.12494,-0.003 2.43208,0.183801 3.21892,0.918292 l -1.35961,-16.856336 c -0.0304,-0.426009 -0.0137,-0.777748 0.0408,-1.068668 3e-5,-1.78e-4 -3e-5,-2.65e-4 0,-5.3e-4 0.006,-0.03159 0.017,-0.05509 0.0238,-0.08527 0.0453,-0.200681 0.11045,-0.3698 0.1912,-0.51418 0.0189,-0.03378 0.0337,-0.07437 0.0543,-0.105421 8e-5,-1.14e-4 -7e-5,-5.29e-4 0,-5.29e-4 0.0278,-0.04191 0.0623,-0.07335 0.093,-0.110588 0.0367,-0.04442 0.0705,-0.09349 0.11111,-0.131773 0.22357,-0.210968 0.50303,-0.333079 0.80873,-0.413412 2.46111,-0.199977 4.91119,-0.375605 7.34942,-0.526584 0.004,-2.65e-4 0.009,-7.94e-4 0.0129,-0.0011 4.87875,-0.301932 9.7114,-0.5051 14.49731,-0.608232 0.001,-2.4e-5 0.002,2.1e-5 0.003,0 2.6e-4,-8e-6 7.9e-4,5e-6 0.001,0 4.78809,-0.103124 9.52938,-0.106067 14.22291,-0.0067 1.7e-4,3e-6 2.6e-4,-5e-6 5.3e-4,0 2.346842,0.04968 4.681842,0.12487 7.004742,0.225825 1.7e-4,8e-6 2.6e-4,-8e-6 5.3e-4,0 2.323063,0.100967 4.633971,0.227652 6.932891,0.380338 2.29892,0.152686 4.58548,0.33156 6.86004,0.536403 0.14,0.01982 0.26631,0.05296 0.37983,0.09818 0.11363,0.04528 0.21432,0.102638 0.30385,0.171048 0.17877,0.136597 0.31205,0.31691 0.40928,0.531752 0.0973,0.214961 0.1587,0.464336 0.19379,0.738973 2e-5,1.75e-4 -2e-5,2.65e-4 0,5.29e-4 0.035,0.274503 0.0438,0.574403 0.0362,0.889868 l -1.36219,16.894577 c 0.78148,-0.76853 2.1184,-0.95962 3.26388,-0.956532 1.152,0.0031 2.10944,0.201538 2.10944,0.201538 -2.21768,0.644864 -3.618,0.95834 -5.63997,4.056084 l -1.01699,12.612662 c 0,0 13.03742,-2.29357 13.22916,-7.937496 0.30071,-8.851056 -5.02546,-18.898391 -7.9375,-27.781249 -2.49351,-7.606213 -11.68716,-11.593238 -19.754841,-13.677202 -0.43286,0.92792 -1.20227,2.080199 -2.50528,3.490743 -2.632122,2.849354 -6.967862,3.604255 -10.548192,3.571875 -3.31513,-0.02998 -7.35006,-0.881536 -9.73636,-3.571875 -1.29333,-1.458116 -1.95717,-2.726618 -2.28461,-3.763594 z" /><path
       style="display:inline;fill:#ffffff;fill-opacity:1;stroke-width:0.100011"
       d="m 92.610369,95.948025 c 0.0648,-1.23384 -0.80179,-4.31374 -1.55928,-5.54124 -0.51081,-0.82777 -1.18399,-1.63523 -1.782762,-2.13841 -0.98655,-0.82901 -2.59221,-1.51558 -3.97745,-1.70073 -0.53079,-0.0709 -0.72076,-0.14223 -0.76039,-0.28536 -0.0289,-0.10498 0.0221,-0.57356 0.11349,-1.04138 0.61977,-3.16956 2.24326,-5.771742 4.56485,-7.316637 1.171782,-0.779766 2.002892,-0.947552 2.868072,-0.579004 0.59048,0.251526 1.83929,1.876686 2.85551,3.715991 0.60415,1.09353 1.418622,3.38676 1.610922,4.53574 0.590587,3.52891 -0.470787,6.84613 -3.118262,9.74579 -0.38009,0.41631 -0.72116,0.76589 -0.75792,0.77685 -0.0368,0.011 -0.0623,-0.0662 -0.0566,-0.17163 z"
       id="path2143"
       sodipodi:nodetypes="cssscssssssscc" /><path
       id="path1218"
       style="display:inline;fill:#ffffff;fill-opacity:1;stroke-width:0.197753"
       d="m 68.527077,48.303898 c 0,0 -1.09144,3.95923 3.14968,8.419123 2.22621,2.341047 5.90766,3.117096 8.95759,3.143478 3.29391,0.0285 7.28275,-0.63604 9.704322,-3.143478 4.27159,-4.423077 3.32383,-8.419123 3.32383,-8.419123 z m 0,1.322916 h 25.135422 c 0,0 -0.23658,2.190396 -4.152212,6.060612 -2.21977,2.19402 -5.87616,2.775143 -8.89558,2.750219 -2.79576,-0.0231 -6.17017,-0.701791 -8.21087,-2.750219 -3.88767,-3.902435 -3.87676,-6.060612 -3.87676,-6.060612 z" /><path
       style="display:inline;fill:#ffffff;fill-opacity:1;stroke-width:0.314637"
       d="m 76.464577,53.093054 c 0,-0.677047 0.18708,-0.705554 4.63021,-0.705554 4.44312,0 4.63021,0.0285 4.63021,0.705554 0,0.677048 -0.18709,0.705557 -4.63021,0.705557 -4.44313,0 -4.63021,-0.0285 -4.63021,-0.705557 z"
       id="path373" /><path
       style="display:inline;fill:#ffffff;fill-opacity:1;stroke-width:0.27028"
       d="m 79.631897,55.033334 c 0,-0.64284 0.13805,-0.705557 1.55306,-0.705557 1.41502,0 1.55307,0.06272 1.55307,0.705557 0,0.642837 -0.13805,0.705553 -1.55307,0.705553 -1.41501,0 -1.55306,-0.06272 -1.55306,-0.705553 z"
       id="path371" /><path
       style="display:inline;fill:#ffffff;fill-opacity:1;stroke-width:0.060059"
       d="m 90.293289,43.185444 c -0.840532,-0.340047 -2.228902,-0.758459 -3.208552,-0.966964 -1.45717,-0.310139 -3.62665,-0.561915 -4.8558,-0.563536 l -0.47268,-6.8e-4 V 34.562936 27.47149 l 0.75916,0.04403 c 2.22904,0.129287 4.15557,0.603237 5.64227,1.388067 l 0.64323,0.339562 0.31923,0.53813 c 0.973812,1.641548 1.588762,3.715442 1.896522,6.395916 0.11781,1.026007 0.16505,3.901582 0.0843,5.130927 -0.078,1.187327 -0.17811,2.111337 -0.22789,2.103308 -0.0195,-0.0031 -0.28042,-0.104813 -0.57979,-0.225924 z"
       id="path1645" /><path
       style="display:inline;fill:#ffffff;fill-opacity:1;stroke-width:0.0599772"
       d="m 71.298547,43.444955 c 0,-0.03388 -0.0439,-0.483481 -0.0975,-0.999109 -0.1241,-1.193933 -0.14192,-4.995461 -0.0282,-6.009623 0.32137,-2.865391 0.92871,-4.970398 1.91671,-6.643152 0.30369,-0.51418 0.33512,-0.545954 0.78907,-0.797843 1.54858,-0.859283 3.44781,-1.34392 5.8048,-1.481242 l 0.74984,-0.04369 v 7.088007 7.088007 l -0.9563,0.043 c -2.96124,0.133151 -5.87947,0.773208 -8.07858,1.771871 -0.0551,0.025 -0.0999,0.0177 -0.0999,-0.01623 z"
       id="path1643" /><path
       style="display:inline;fill:#ffffff;fill-opacity:1;stroke-width:0.0641497"
       d="m 93.012099,44.479556 c -0.38674,-0.207752 -0.72432,-0.385776 -0.75017,-0.395605 -0.0259,-0.0098 -0.006,-0.35103 0.0436,-0.758215 0.25739,-2.103999 0.2868,-5.055158 0.0686,-6.88837 -0.25379,-2.132665 -0.80278,-4.126833 -1.54903,-5.626752 l -0.28515,-0.573133 0.26213,0.209085 c 0.35166,0.280498 1.01304,1.051437 1.40906,1.642472 1.74679,2.607014 2.33728,6.495691 1.75891,11.583439 -0.10986,0.966457 -0.15159,1.201065 -0.21193,1.191562 -0.0236,-0.0037 -0.35929,-0.176729 -0.74602,-0.384483 z"
       id="path1641" /><path
       style="display:inline;fill:#ffffff;fill-opacity:1;stroke-width:0.0639937"
       d="m 68.598037,44.624074 c -0.11752,-0.734224 -0.23536,-2.01256 -0.30411,-3.299073 -0.20632,-3.860887 0.42204,-6.919318 1.88236,-9.162021 0.39185,-0.601793 1.0625,-1.390737 1.44187,-1.696205 l 0.25746,-0.207302 -0.34092,0.719816 c -1.47484,3.113993 -1.95766,7.31017 -1.4052,12.212589 0.0532,0.471953 0.0889,0.863634 0.0793,0.870396 -0.0491,0.03467 -1.53326,0.802039 -1.55124,0.802039 -0.0116,0 -0.0384,-0.108108 -0.0595,-0.240239 z"
       id="path1639" /><path
       style="display:inline;fill:#ffffff;fill-opacity:1;stroke-width:0.0647041"
       d="m 69.209337,54.421584 c -0.55635,-0.217251 -0.94908,-0.792924 -1.12654,-1.651315 -0.11284,-0.545799 -0.12719,-2.046337 -0.0283,-2.965074 0.0783,-0.728125 0.54611,-3.653036 0.59797,-3.739021 0.10369,-0.171898 1.40896,-0.871886 2.3893,-1.281335 2.01933,-0.843388 4.11661,-1.348185 7.01227,-1.687788 0.97121,-0.113905 5.43515,-0.112801 6.45627,0.0016 3.35278,0.375615 6.123702,1.13886 8.280252,2.280776 1.0701,0.566628 0.97005,0.391839 1.26963,2.217911 0.31517,1.921126 0.39023,2.660108 0.39023,3.841818 0,1.418664 -0.22831,2.219948 -0.7672,2.692555 -0.34637,0.303766 -0.71344,0.402603 -1.32866,0.357742 -1.03244,-0.07528 -2.38252,-0.748349 -4.372362,-2.179792 -0.86137,-0.61965 -2.16282,-1.305653 -3.0391,-1.601934 -2.26819,-0.766906 -5.18151,-0.766906 -7.4497,0 -0.88974,0.300833 -2.15364,0.970839 -3.11636,1.652006 -1.53275,1.084494 -2.42941,1.601258 -3.35459,1.933294 -0.53834,0.193203 -1.47706,0.259765 -1.81306,0.128558 z"
       id="path1635" /></g></svg>
